G75*
%MOIN*%
%OFA0B0*%
%FSLAX25Y25*%
%IPPOS*%
%LPD*%
%AMOC8*
5,1,8,0,0,1.08239X$1,22.5*
%
%ADD10C,0.00000*%
%ADD11OC8,0.05600*%
%ADD12C,0.05600*%
%ADD13C,0.05550*%
%ADD14C,0.11620*%
%ADD15C,0.05600*%
%ADD16C,0.06337*%
%ADD17C,0.07800*%
D10*
X0001800Y0001800D02*
X0001800Y0198650D01*
X0198650Y0198650D01*
X0198650Y0001800D01*
X0001800Y0001800D01*
D11*
X0026800Y0086800D03*
X0041800Y0086800D03*
X0041800Y0126800D03*
X0026800Y0126800D03*
X0094300Y0185550D03*
X0099300Y0193050D03*
X0104300Y0185550D03*
X0121800Y0190550D03*
X0131800Y0190550D03*
X0131800Y0176800D03*
X0121800Y0176800D03*
X0126800Y0155550D03*
X0136800Y0155550D03*
X0153050Y0155550D03*
X0150550Y0171800D03*
X0171800Y0186800D03*
X0181800Y0186800D03*
X0193050Y0155550D03*
X0150550Y0096800D03*
X0141800Y0046800D03*
X0131800Y0046800D03*
X0126800Y0016800D03*
X0111800Y0016800D03*
X0101800Y0016800D03*
X0166800Y0016800D03*
D12*
X0130550Y0096800D03*
X0150550Y0191800D03*
D13*
X0074674Y0186800D03*
X0066800Y0186800D03*
X0058926Y0186800D03*
X0030599Y0161721D03*
X0027450Y0166446D03*
X0024300Y0161721D03*
X0021150Y0166446D03*
X0018001Y0161721D03*
D14*
X0009930Y0181800D03*
X0038670Y0181800D03*
D15*
X0079200Y0166800D02*
X0084400Y0166800D01*
X0084400Y0156800D02*
X0079200Y0156800D01*
X0079200Y0146800D02*
X0084400Y0146800D01*
X0084400Y0136800D02*
X0079200Y0136800D01*
X0079200Y0126800D02*
X0084400Y0126800D01*
X0084400Y0116800D02*
X0079200Y0116800D01*
X0079200Y0106800D02*
X0084400Y0106800D01*
X0084400Y0096800D02*
X0079200Y0096800D01*
X0079200Y0086800D02*
X0084400Y0086800D01*
X0084400Y0076800D02*
X0079200Y0076800D01*
X0079200Y0066800D02*
X0084400Y0066800D01*
X0084400Y0056800D02*
X0079200Y0056800D01*
X0079200Y0046800D02*
X0084400Y0046800D01*
X0084400Y0036800D02*
X0079200Y0036800D01*
X0109200Y0036800D02*
X0114400Y0036800D01*
X0114400Y0046800D02*
X0109200Y0046800D01*
X0109200Y0056800D02*
X0114400Y0056800D01*
X0114400Y0066800D02*
X0109200Y0066800D01*
X0109200Y0076800D02*
X0114400Y0076800D01*
X0114400Y0086800D02*
X0109200Y0086800D01*
X0109200Y0096800D02*
X0114400Y0096800D01*
X0114400Y0106800D02*
X0109200Y0106800D01*
X0109200Y0116800D02*
X0114400Y0116800D01*
X0114400Y0126800D02*
X0109200Y0126800D01*
X0109200Y0136800D02*
X0114400Y0136800D01*
X0114400Y0146800D02*
X0109200Y0146800D01*
X0109200Y0156800D02*
X0114400Y0156800D01*
X0114400Y0166800D02*
X0109200Y0166800D01*
D16*
X0082548Y0186800D03*
X0051052Y0186800D03*
D17*
X0006800Y0136800D03*
X0006800Y0126800D03*
X0006800Y0116800D03*
X0006800Y0106800D03*
X0006800Y0096800D03*
X0006800Y0086800D03*
X0006800Y0076800D03*
X0006800Y0066800D03*
X0006800Y0056800D03*
X0006800Y0046800D03*
X0006800Y0036800D03*
X0006800Y0026800D03*
X0006800Y0016800D03*
X0026800Y0016800D03*
X0046800Y0016800D03*
X0061800Y0016800D03*
X0081800Y0016800D03*
X0066800Y0071800D03*
X0066800Y0081800D03*
X0066800Y0091800D03*
X0193800Y0086800D03*
X0193800Y0076800D03*
X0193800Y0066800D03*
X0193800Y0096800D03*
X0193800Y0106800D03*
X0193800Y0116800D03*
X0193800Y0126800D03*
X0193800Y0136800D03*
M02*
