%
M48
M72
T01C0.02362
T02C0.03150
T03C0.03200
T04C0.03937
T05C0.04000
T06C0.07480
%
T01
X41800Y46800
X51800Y36800
X61800Y61800
X56800Y96800
X61800Y101800
X41800Y96800
X26800Y66800
X21800Y56800
X91800Y16800
X96800Y26800
X121800Y51800
X131800Y71800
X160550Y79300
X175550Y86800
X166800Y96800
X160550Y106800
X131800Y141800
X126800Y166800
X104300Y161800
X96800Y146800
X71800Y171800
X66800Y161800
X61800Y156800
X51800Y131800
X16800Y151800
X166800Y61800
X174300Y54300
T02
X18001Y161721
X21150Y166446
X24300Y161721
X27450Y166446
X30599Y161721
X58926Y186800
X66800Y186800
X74674Y186800
T03
X26800Y126800
X41800Y126800
X41800Y86800
X26800Y86800
X81800Y86800
X81800Y76800
X81800Y66800
X81800Y56800
X81800Y46800
X81800Y36800
X101800Y16800
X111800Y16800
X126800Y16800
X111800Y36800
X111800Y46800
X111800Y56800
X111800Y66800
X111800Y76800
X111800Y86800
X111800Y96800
X111800Y106800
X111800Y116800
X111800Y126800
X111800Y136800
X111800Y146800
X111800Y156800
X111800Y166800
X121800Y176800
X131800Y176800
X131800Y190550
X121800Y190550
X104300Y185550
X99300Y193050
X94300Y185550
X81800Y166800
X81800Y156800
X81800Y146800
X81800Y136800
X81800Y126800
X81800Y116800
X81800Y106800
X81800Y96800
X130550Y96800
X150550Y96800
X141800Y46800
X131800Y46800
X166800Y16800
X153050Y155550
X136800Y155550
X126800Y155550
X150550Y171800
X150550Y191800
X171800Y186800
X181800Y186800
X193050Y155550
T04
X51052Y186800
X82548Y186800
T05
X6800Y136800
X6800Y126800
X6800Y116800
X6800Y106800
X6800Y96800
X6800Y86800
X6800Y76800
X6800Y66800
X6800Y56800
X6800Y46800
X6800Y36800
X6800Y26800
X6800Y16800
X26800Y16800
X46800Y16800
X61800Y16800
X81800Y16800
X66800Y71800
X66800Y81800
X66800Y91800
X193800Y86800
X193800Y76800
X193800Y66800
X193800Y96800
X193800Y106800
X193800Y116800
X193800Y126800
X193800Y136800
T06
X9930Y181800
X38670Y181800
M30
