G75*
%MOIN*%
%OFA0B0*%
%FSLAX25Y25*%
%IPPOS*%
%LPD*%
%AMOC8*
5,1,8,0,0,1.08239X$1,22.5*
%
%ADD10C,0.00000*%
%ADD11OC8,0.05200*%
%ADD12C,0.05200*%
%ADD13C,0.05150*%
%ADD14C,0.11220*%
%ADD15C,0.05200*%
%ADD16C,0.05937*%
%ADD17C,0.07400*%
%ADD18C,0.01600*%
%ADD19C,0.03562*%
D10*
X0001800Y0001800D02*
X0001800Y0198650D01*
X0198650Y0198650D01*
X0198650Y0001800D01*
X0001800Y0001800D01*
D11*
X0026800Y0086800D03*
X0041800Y0086800D03*
X0041800Y0126800D03*
X0026800Y0126800D03*
X0094300Y0185550D03*
X0099300Y0193050D03*
X0104300Y0185550D03*
X0121800Y0190550D03*
X0131800Y0190550D03*
X0131800Y0176800D03*
X0121800Y0176800D03*
X0126800Y0155550D03*
X0136800Y0155550D03*
X0153050Y0155550D03*
X0150550Y0171800D03*
X0171800Y0186800D03*
X0181800Y0186800D03*
X0193050Y0155550D03*
X0150550Y0096800D03*
X0141800Y0046800D03*
X0131800Y0046800D03*
X0126800Y0016800D03*
X0111800Y0016800D03*
X0101800Y0016800D03*
X0166800Y0016800D03*
D12*
X0130550Y0096800D03*
X0150550Y0191800D03*
D13*
X0074674Y0186800D03*
X0066800Y0186800D03*
X0058926Y0186800D03*
X0030599Y0161721D03*
X0027450Y0166446D03*
X0024300Y0161721D03*
X0021150Y0166446D03*
X0018001Y0161721D03*
D14*
X0009930Y0181800D03*
X0038670Y0181800D03*
D15*
X0079200Y0166800D02*
X0084400Y0166800D01*
X0084400Y0156800D02*
X0079200Y0156800D01*
X0079200Y0146800D02*
X0084400Y0146800D01*
X0084400Y0136800D02*
X0079200Y0136800D01*
X0079200Y0126800D02*
X0084400Y0126800D01*
X0084400Y0116800D02*
X0079200Y0116800D01*
X0079200Y0106800D02*
X0084400Y0106800D01*
X0084400Y0096800D02*
X0079200Y0096800D01*
X0079200Y0086800D02*
X0084400Y0086800D01*
X0084400Y0076800D02*
X0079200Y0076800D01*
X0079200Y0066800D02*
X0084400Y0066800D01*
X0084400Y0056800D02*
X0079200Y0056800D01*
X0079200Y0046800D02*
X0084400Y0046800D01*
X0084400Y0036800D02*
X0079200Y0036800D01*
X0109200Y0036800D02*
X0114400Y0036800D01*
X0114400Y0046800D02*
X0109200Y0046800D01*
X0109200Y0056800D02*
X0114400Y0056800D01*
X0114400Y0066800D02*
X0109200Y0066800D01*
X0109200Y0076800D02*
X0114400Y0076800D01*
X0114400Y0086800D02*
X0109200Y0086800D01*
X0109200Y0096800D02*
X0114400Y0096800D01*
X0114400Y0106800D02*
X0109200Y0106800D01*
X0109200Y0116800D02*
X0114400Y0116800D01*
X0114400Y0126800D02*
X0109200Y0126800D01*
X0109200Y0136800D02*
X0114400Y0136800D01*
X0114400Y0146800D02*
X0109200Y0146800D01*
X0109200Y0156800D02*
X0114400Y0156800D01*
X0114400Y0166800D02*
X0109200Y0166800D01*
D16*
X0082548Y0186800D03*
X0051052Y0186800D03*
D17*
X0006800Y0136800D03*
X0006800Y0126800D03*
X0006800Y0116800D03*
X0006800Y0106800D03*
X0006800Y0096800D03*
X0006800Y0086800D03*
X0006800Y0076800D03*
X0006800Y0066800D03*
X0006800Y0056800D03*
X0006800Y0046800D03*
X0006800Y0036800D03*
X0006800Y0026800D03*
X0006800Y0016800D03*
X0026800Y0016800D03*
X0046800Y0016800D03*
X0061800Y0016800D03*
X0081800Y0016800D03*
X0066800Y0071800D03*
X0066800Y0081800D03*
X0066800Y0091800D03*
X0193800Y0086800D03*
X0193800Y0076800D03*
X0193800Y0066800D03*
X0193800Y0096800D03*
X0193800Y0106800D03*
X0193800Y0116800D03*
X0193800Y0126800D03*
X0193800Y0136800D03*
D18*
X0183800Y0146800D01*
X0111800Y0146800D01*
X0101800Y0141800D02*
X0131800Y0141800D01*
X0136800Y0155550D02*
X0132600Y0159750D01*
X0125060Y0159750D01*
X0122110Y0156800D01*
X0111800Y0156800D01*
X0104300Y0161800D02*
X0095340Y0161800D01*
X0086140Y0171000D01*
X0077460Y0171000D01*
X0072906Y0166446D01*
X0027450Y0166446D01*
X0024695Y0161721D02*
X0024300Y0161721D01*
X0024695Y0161721D02*
X0028870Y0157546D01*
X0061054Y0157546D01*
X0061800Y0156800D01*
X0066800Y0151800D02*
X0081800Y0166800D01*
X0081800Y0156800D02*
X0071800Y0146800D01*
X0016800Y0146800D01*
X0006800Y0136800D01*
X0006800Y0126800D02*
X0016800Y0136800D01*
X0071800Y0136800D01*
X0081800Y0146800D01*
X0081800Y0136800D02*
X0076800Y0131800D01*
X0051800Y0131800D01*
X0066800Y0151800D02*
X0016800Y0151800D01*
X0021150Y0166446D02*
X0026505Y0171800D01*
X0071800Y0171800D01*
X0066800Y0161800D02*
X0066800Y0161721D01*
X0030599Y0161721D01*
X0074674Y0186800D02*
X0080924Y0193050D01*
X0099300Y0193050D01*
X0104300Y0185550D02*
X0116800Y0185550D01*
X0121800Y0190550D01*
X0130550Y0181800D01*
X0141800Y0181800D01*
X0150550Y0190550D01*
X0150550Y0191800D01*
X0155550Y0186800D01*
X0171800Y0186800D01*
X0126800Y0166800D02*
X0111800Y0166800D01*
X0104300Y0161800D02*
X0103500Y0162600D01*
X0096800Y0146800D02*
X0101800Y0141800D01*
X0111800Y0136800D02*
X0183800Y0136800D01*
X0193800Y0126800D01*
X0183800Y0126800D02*
X0193800Y0116800D01*
X0193800Y0106800D02*
X0160550Y0106800D01*
X0166800Y0096800D02*
X0193800Y0096800D01*
X0193800Y0086800D02*
X0175550Y0086800D01*
X0188800Y0071800D02*
X0193800Y0076800D01*
X0188800Y0071800D02*
X0131800Y0071800D01*
X0124300Y0079300D02*
X0160550Y0079300D01*
X0166800Y0061800D02*
X0116800Y0061800D01*
X0111800Y0056800D01*
X0113219Y0048219D02*
X0123283Y0048219D01*
X0129364Y0054300D01*
X0174300Y0054300D01*
X0175550Y0054300D01*
X0174300Y0054300D01*
X0131800Y0046800D02*
X0121800Y0036800D01*
X0111800Y0036800D01*
X0111800Y0046800D02*
X0113219Y0048219D01*
X0121800Y0051800D02*
X0086800Y0051800D01*
X0081800Y0046800D01*
X0041800Y0046800D01*
X0006800Y0046800D01*
X0006800Y0056800D02*
X0016800Y0066800D01*
X0026800Y0066800D01*
X0021800Y0056800D02*
X0081800Y0056800D01*
X0076800Y0061800D02*
X0081800Y0066800D01*
X0076800Y0061800D02*
X0061800Y0061800D01*
X0066800Y0071800D02*
X0071800Y0076800D01*
X0081800Y0076800D01*
X0081800Y0086800D02*
X0071800Y0086800D01*
X0066800Y0091800D01*
X0066800Y0081800D02*
X0091800Y0081800D01*
X0091800Y0091800D01*
X0086800Y0096800D01*
X0081800Y0096800D01*
X0081800Y0106800D02*
X0006800Y0106800D01*
X0006800Y0096800D02*
X0041800Y0096800D01*
X0056800Y0096800D01*
X0061800Y0101800D02*
X0106800Y0101800D01*
X0111800Y0096800D01*
X0111800Y0086800D02*
X0120550Y0086800D01*
X0130550Y0096800D01*
X0124300Y0079300D02*
X0111800Y0066800D01*
X0096800Y0026800D02*
X0016800Y0026800D01*
X0006800Y0016800D01*
X0006800Y0026800D02*
X0016800Y0036800D01*
X0051800Y0036800D01*
X0031800Y0076800D02*
X0041800Y0086800D01*
X0031800Y0076800D02*
X0006800Y0076800D01*
X0006800Y0116800D02*
X0081800Y0116800D01*
X0111800Y0126800D02*
X0183800Y0126800D01*
X0126800Y0016800D02*
X0111800Y0016800D01*
X0101800Y0016800D02*
X0091800Y0016800D01*
D19*
X0091800Y0016800D03*
X0096800Y0026800D03*
X0121800Y0051800D03*
X0131800Y0071800D03*
X0160550Y0079300D03*
X0175550Y0086800D03*
X0166800Y0096800D03*
X0160550Y0106800D03*
X0131800Y0141800D03*
X0126800Y0166800D03*
X0104300Y0161800D03*
X0096800Y0146800D03*
X0071800Y0171800D03*
X0066800Y0161800D03*
X0061800Y0156800D03*
X0051800Y0131800D03*
X0061800Y0101800D03*
X0056800Y0096800D03*
X0041800Y0096800D03*
X0026800Y0066800D03*
X0021800Y0056800D03*
X0041800Y0046800D03*
X0051800Y0036800D03*
X0061800Y0061800D03*
X0016800Y0151800D03*
X0166800Y0061800D03*
X0174300Y0054300D03*
M02*
